<svg version="1.1" id="Layer_1" xmlns="http://www.w3.org/2000/svg" xmlns:xlink="http://www.w3.org/1999/xlink" 
	 width="100%" viewBox="0 0 3676 2034" enable-background="new 0 0 3676 2034" xml:space="preserve">

<path fill="#22d3ee" opacity="1.000000" stroke="none" 
	d="
M1082.049805,3.909370 
	C1159.417969,9.105363 1235.401733,22.278009 1309.614014,44.775604 
	C1413.476807,76.261795 1509.968140,123.078484 1598.753906,185.639175 
	C1637.670410,213.060760 1674.406128,243.080261 1709.214844,275.590820 
	C1787.404419,348.618042 1852.143677,432.018402 1904.036011,525.505554 
	C1934.279175,579.990356 1959.168457,636.822510 1978.743652,695.955200 
	C1995.350342,746.121033 2008.501099,797.198608 2016.210693,849.517456 
	C2020.263916,877.023132 2023.180664,904.702332 2026.295410,932.338684 
	C2030.813599,972.428406 2029.744263,1012.702271 2029.604004,1052.926880 
	C2029.502930,1081.953613 2033.944702,1110.410645 2039.117065,1138.825806 
	C2048.201904,1188.734741 2063.681396,1236.614624 2084.558105,1282.796509 
	C2109.093018,1337.070923 2140.588867,1386.980347 2179.053223,1432.426514 
	C2230.735352,1493.489624 2291.699219,1543.254150 2361.862061,1581.755005 
	C2421.175293,1614.302368 2484.139404,1636.828369 2550.579102,1649.066650 
	C2575.605713,1653.676514 2601.110107,1656.298828 2626.519043,1658.053223 
	C2651.336182,1659.766968 2676.367920,1660.488525 2701.199951,1659.348511 
	C2733.941650,1657.845337 2766.438965,1653.404175 2798.666992,1646.781616 
	C2854.997314,1635.206055 2908.651611,1616.268555 2959.804932,1590.218384 
	C3008.625000,1565.356323 3053.435547,1534.562256 3094.430908,1498.158569 
	C3141.009766,1456.797363 3180.457520,1409.484863 3213.641602,1356.855469 
	C3214.340820,1355.746216 3215.081787,1354.663330 3216.741211,1352.144897 
	C3217.169434,1355.514893 3217.634766,1357.468750 3217.635254,1359.422485 
	C3217.668701,1526.078369 3217.636963,1692.734375 3217.783203,1859.390137 
	C3217.788574,1865.412476 3216.089600,1869.053711 3210.692627,1872.066528 
	C3181.392090,1888.424316 3152.776611,1906.077148 3122.997803,1921.492432 
	C3085.228027,1941.044189 3045.874023,1957.213257 3005.712402,1971.345215 
	C2960.867188,1987.125244 2915.187256,1999.972290 2868.502197,2008.783325 
	C2839.233643,2014.307251 2809.662354,2018.386963 2780.111084,2022.218506 
	C2735.881592,2027.953247 2691.359863,2029.177368 2646.820557,2028.239258 
	C2602.706299,2027.310059 2558.834961,2023.427612 2515.162109,2016.741699 
	C2466.196777,2009.245483 2418.073486,1998.369629 2370.752930,1983.831421 
	C2327.522217,1970.549683 2285.349609,1954.507568 2244.307617,1935.473267 
	C2195.346924,1912.766235 2148.382324,1886.534790 2103.689697,1856.278809 
	C2062.064453,1828.099609 2022.696655,1797.093262 1985.543213,1763.172607 
	C1926.813843,1709.553223 1875.312378,1649.796265 1830.552612,1584.116943 
	C1791.668579,1527.059570 1758.958130,1466.683350 1732.632080,1402.872437 
	C1707.492065,1341.936279 1687.790283,1279.277466 1675.741577,1214.431396 
	C1670.058960,1183.847778 1665.634766,1152.987549 1661.896118,1122.100708 
	C1659.390625,1101.402344 1658.533081,1080.451172 1657.998169,1059.585815 
	C1657.624756,1045.018921 1659.708740,1030.398438 1659.542725,1015.815125 
	C1659.001099,968.275208 1654.058594,921.189880 1643.436768,874.773010 
	C1625.289062,795.469421 1593.023071,722.311157 1547.266113,655.143921 
	C1521.910278,617.923462 1492.818359,583.729370 1460.117188,552.758972 
	C1411.002808,506.243896 1356.064453,467.970825 1294.993164,438.774628 
	C1238.027222,411.541077 1178.348022,393.046082 1115.825073,383.533417 
	C1083.600342,378.630554 1051.238892,375.839691 1018.734497,375.839600 
	C969.835754,375.839478 921.415405,381.230804 873.733154,392.330017 
	C824.371643,403.820129 776.904114,420.759674 731.644165,443.554840 
	C680.318665,469.404938 633.229492,501.496216 590.405090,539.966064 
	C549.597229,576.624512 513.941467,617.651978 483.706726,663.324219 
	C436.175232,735.124634 404.386261,813.397949 388.191498,898.030029 
	C378.395630,949.221985 375.821533,1000.829895 378.320160,1052.765503 
	C382.177826,1132.948975 401.456451,1209.474121 434.534271,1282.432129 
	C461.201019,1341.249390 496.417786,1394.611084 539.349365,1442.991943 
	C585.474731,1494.971802 638.685059,1538.151001 698.701111,1572.877319 
	C763.106995,1610.143921 832.053589,1635.503296 905.462219,1647.992310 
	C928.281433,1651.874512 951.402161,1654.622314 974.498779,1656.065186 
	C1000.330627,1657.678955 1026.378662,1658.791992 1052.180786,1657.369873 
	C1131.081543,1653.020996 1206.899292,1635.050293 1279.177124,1602.638062 
	C1339.723389,1575.486694 1394.986938,1540.091187 1444.374756,1495.891479 
	C1502.664185,1443.725708 1550.535278,1383.215698 1586.404175,1313.481445 
	C1591.861694,1302.871216 1597.206177,1292.203003 1603.566895,1279.661255 
	C1640.087646,1423.192871 1701.868896,1552.953247 1789.598145,1670.821777 
	C1778.475342,1683.326416 1767.783569,1695.971924 1756.432861,1707.995361 
	C1714.346191,1752.576294 1668.866577,1793.390625 1619.592773,1829.916992 
	C1567.078979,1868.845459 1511.276367,1902.355103 1452.307007,1930.521606 
	C1373.094482,1968.357178 1290.192505,1995.108643 1203.976562,2011.362427 
	C1171.426392,2017.499023 1138.547607,2021.562012 1105.499756,2024.533691 
	C1067.681274,2027.934326 1029.829224,2029.080811 991.947571,2028.206787 
	C921.137329,2026.573120 851.187256,2017.674194 782.232849,2001.270386 
	C712.535583,1984.689819 645.380249,1961.026489 580.692200,1930.156494 
	C499.490997,1891.406128 424.926025,1842.637451 356.582336,1784.170410 
	C330.240265,1761.635254 305.138092,1737.796631 281.368408,1712.647827 
	C221.023117,1648.801880 169.542572,1578.451538 127.327492,1501.281128 
	C97.087784,1446.001953 72.142319,1388.491577 52.714619,1328.636108 
	C35.996773,1277.129395 22.825201,1224.679932 15.670909,1170.909424 
	C11.916318,1142.690308 8.999537,1114.359009 5.831057,1086.064209 
	C5.388533,1082.112427 5.672547,1078.079346 5.305293,1072.266968 
	C4.869095,1064.362427 4.906435,1058.264526 4.510772,1052.194824 
	C4.416468,1050.748169 2.875574,1049.395752 2.000019,1048.000000 
	C2.000000,1026.624878 2.000000,1005.249756 2.846704,982.683838 
	C3.861187,974.377380 4.028966,967.261719 4.752209,959.508423 
	C6.759111,940.707520 8.028118,922.527222 9.701453,904.384338 
	C12.808214,870.699768 18.667675,837.459656 25.543089,804.342285 
	C41.408745,727.920898 66.263802,654.527344 99.400436,583.961792 
	C124.029373,531.513550 153.047348,481.544891 186.393753,434.095001 
	C230.921661,370.734467 281.769592,312.971954 339.395203,261.268066 
	C379.764893,225.046799 422.760925,192.214478 468.406708,162.817032 
	C534.052002,120.539223 603.610535,86.297653 677.143372,60.162418 
	C766.092834,28.547773 857.763977,10.037526 952.841125,4.002781 
	C959.776306,3.004869 966.298645,6.080384 972.000000,2.000000 
	C1001.375122,2.000000 1030.750244,2.000000 1061.543457,2.688179 
	C1069.324341,3.554029 1075.687134,3.731699 1082.049805,3.909370 
z"/>
<path fill="#22d3ee" opacity="1.000000" stroke="none" 
	d="
M3643.561035,2034.313843 
	C3618.173828,2033.009888 3593.671631,2026.961792 3569.616211,2019.391602 
	C3520.496094,2003.933716 3476.194092,1979.311157 3437.346436,1945.568481 
	C3379.899170,1895.669800 3340.201660,1834.103149 3319.790527,1760.616577 
	C3315.014893,1743.421631 3312.137939,1725.690552 3308.645996,1708.154785 
	C3307.941650,1704.619141 3308.343750,1700.850586 3308.343506,1697.189331 
	C3308.333252,1463.558105 3308.237305,1229.926636 3308.438232,996.295532 
	C3308.468750,960.914490 3303.805420,926.189697 3297.033203,891.625549 
	C3287.799805,844.497437 3273.049316,799.081848 3253.281250,755.391296 
	C3228.196777,699.949768 3195.844482,648.999695 3156.207031,602.756165 
	C3106.383057,544.628479 3048.099365,496.873169 2981.308838,459.364441 
	C2925.563477,428.058502 2866.500977,405.695404 2804.050293,392.311981 
	C2773.238281,385.708801 2742.169189,380.523651 2710.568359,379.703217 
	C2685.670654,379.056763 2660.680664,377.260925 2635.875977,378.615967 
	C2555.618408,383.000397 2478.540283,401.301758 2405.166992,434.577423 
	C2349.074707,460.015900 2297.597900,492.726898 2250.973633,532.889832 
	C2192.971924,582.853394 2145.215576,641.313843 2108.142578,708.353394 
	C2099.957275,723.154968 2092.547607,738.385437 2083.653564,755.599609 
	C2071.030762,706.732239 2056.703857,660.476196 2038.888062,615.358032 
	C2020.919189,569.852112 1999.907959,525.801636 1976.198120,483.031342 
	C1952.482422,440.250397 1925.904419,399.295563 1896.223633,359.692200 
	C1904.787720,349.971588 1912.881592,340.413208 1921.384155,331.233337 
	C1930.879883,320.981018 1940.655273,310.982361 1950.466797,301.028748 
	C2006.520996,244.162231 2068.671387,194.923599 2136.574463,152.968430 
	C2228.301270,96.293312 2326.495117,55.055355 2431.437012,30.037163 
	C2469.517334,20.958738 2507.900146,13.579982 2546.881348,9.619671 
	C2565.318848,7.746534 2583.775146,6.060302 2603.977539,4.192555 
	C2611.776367,3.004953 2618.298828,6.080676 2624.000000,2.000000 
	C2653.375244,2.000000 2682.750244,2.000000 2713.543457,2.688280 
	C2721.323975,3.554305 2727.686768,3.732049 2734.913086,4.099907 
	C2754.882568,6.078090 2774.002197,7.731837 2793.091553,9.682239 
	C2832.719727,13.731087 2871.797607,21.189405 2910.400146,30.719585 
	C2995.555176,51.742725 3076.785645,83.005531 3153.875000,125.102806 
	C3238.163330,171.131088 3314.260010,228.067505 3382.599609,295.365692 
	C3400.338867,312.834534 3417.016846,331.435822 3433.480713,350.134796 
	C3496.473633,421.679016 3547.668701,500.959961 3587.952393,587.329956 
	C3619.357178,654.663269 3643.173828,724.555359 3658.854004,797.189270 
	C3666.827148,834.121155 3673.957520,871.193787 3676.164795,909.028320 
	C3676.224365,910.051086 3677.364014,911.010864 3678.000000,912.000000 
	C3678.000000,1286.666626 3678.000000,1661.333374 3678.000000,2036.000000 
	C3671.254150,2036.000000 3664.592773,2036.000000 3656.468262,2035.370117 
	C3651.190186,2034.598145 3647.375732,2034.456055 3643.561035,2034.313843 
z"/>

</svg>